<?xml version="1.0" encoding="utf-8"?>
<!-- Generator: Adobe Illustrator 19.0.0, SVG Export Plug-In . SVG Version: 6.00 Build 0)  -->
<svg version="1.1" id="Layer_1" xmlns="http://www.w3.org/2000/svg" xmlns:xlink="http://www.w3.org/1999/xlink" x="0px" y="0px"
	 viewBox="0 0 700 700" style="enable-background:new 0 0 700 700;" xml:space="preserve">
<style type="text/css">
	.st0{opacity:0.8;fill:none;stroke:#0E4799;stroke-width:5;stroke-linejoin:round;}
</style>
<path class="st0" d="M81.3,291.6c14.4-66.3,52.8-124.9,107.9-164.6c28.5-20.5,60.6-35.4,94.7-43.9c31.2-7.7,63.5-9.9,95.5-6.5
	c67.5,7.3,129.8,39.1,175.2,89.6C600,216.8,625,282.1,625,350c0,67.9-25,133.2-70.4,183.8c-45.4,50.6-107.8,82.4-175.3,89.7
	c-32,3.4-64.3,1.2-95.5-6.6c-34.1-8.5-66.2-23.4-94.6-43.9c-55-39.7-93.3-98.3-107.8-164.5"/>
</svg>
