<?xml version="1.0" encoding="utf-8"?>
<!-- Generator: Adobe Illustrator 19.0.0, SVG Export Plug-In . SVG Version: 6.00 Build 0)  -->
<svg version="1.1" id="Layer_1" xmlns="http://www.w3.org/2000/svg" xmlns:xlink="http://www.w3.org/1999/xlink" x="0px" y="0px"
	 viewBox="0 0 300 70" style="enable-background:new 0 0 300 70;" xml:space="preserve">
<style type="text/css">
	.st0{fill:#0E4799;}
	.st1{fill:#FFFFFF;}
</style>
<g>
	<rect y="0" class="st0" width="300" height="70"/>
</g>
<g>
	<path class="st1" d="M40.1,37.7h-4.7l-1,2.8h-2.2l4.6-12.1h1.9l4.6,12.1h-2.2L40.1,37.7z M36,36h3.5l-1.8-5L36,36z"/>
	<path class="st1" d="M53.7,38.9c-0.4,0.6-1,1-1.8,1.3c-0.8,0.3-1.7,0.4-2.6,0.4c-1,0-1.9-0.2-2.7-0.7c-0.8-0.5-1.4-1.1-1.8-2
		c-0.4-0.9-0.6-1.9-0.7-3V34c0-1.8,0.4-3.3,1.3-4.3c0.9-1,2.1-1.5,3.7-1.5c1.3,0,2.4,0.3,3.2,1c0.8,0.7,1.3,1.6,1.4,2.9h-2.1
		c-0.2-1.5-1.1-2.2-2.5-2.2c-0.9,0-1.7,0.3-2.2,1c-0.5,0.7-0.7,1.7-0.8,3v0.9c0,1.3,0.3,2.3,0.8,3c0.6,0.7,1.3,1.1,2.3,1.1
		c1.1,0,1.8-0.2,2.3-0.7v-2.4h-2.5v-1.6h4.6V38.9z"/>
	<path class="st1" d="M65.4,38.9c-0.4,0.6-1,1-1.8,1.3c-0.8,0.3-1.7,0.4-2.6,0.4c-1,0-1.9-0.2-2.7-0.7s-1.4-1.1-1.8-2
		c-0.4-0.9-0.6-1.9-0.7-3V34c0-1.8,0.4-3.3,1.3-4.3c0.9-1,2.1-1.5,3.7-1.5c1.3,0,2.4,0.3,3.2,1c0.8,0.7,1.3,1.6,1.4,2.9h-2.1
		c-0.2-1.5-1.1-2.2-2.5-2.2c-0.9,0-1.7,0.3-2.2,1c-0.5,0.7-0.7,1.7-0.8,3v0.9c0,1.3,0.3,2.3,0.8,3c0.6,0.7,1.3,1.1,2.3,1.1
		c1.1,0,1.8-0.2,2.3-0.7v-2.4h-2.5v-1.6h4.6V38.9z"/>
	<path class="st1" d="M69.9,40.5h-2.1V28.4h2.1V40.5z"/>
	<path class="st1" d="M81.3,28.4v8.1c0,1.3-0.4,2.3-1.2,3.1c-0.8,0.8-1.9,1.1-3.3,1.1c-1.4,0-2.5-0.4-3.3-1.1
		c-0.8-0.7-1.2-1.8-1.2-3.1v-8.1h2.1v8.1c0,0.8,0.2,1.4,0.6,1.9c0.4,0.4,1,0.6,1.8,0.6c1.6,0,2.4-0.9,2.4-2.6v-8H81.3z"/>
	<path class="st1" d="M93.2,40.5h-2.1l-5.4-8.6v8.6h-2.1V28.4h2.1l5.4,8.6v-8.6h2.1V40.5z"/>
	<path class="st1" d="M105,38.9c-0.4,0.6-1,1-1.8,1.3c-0.8,0.3-1.7,0.4-2.6,0.4c-1,0-1.9-0.2-2.7-0.7s-1.4-1.1-1.8-2
		c-0.4-0.9-0.6-1.9-0.7-3V34c0-1.8,0.4-3.3,1.3-4.3c0.9-1,2.1-1.5,3.7-1.5c1.3,0,2.4,0.3,3.2,1c0.8,0.7,1.3,1.6,1.4,2.9h-2.1
		c-0.2-1.5-1.1-2.2-2.5-2.2c-0.9,0-1.7,0.3-2.2,1c-0.5,0.7-0.7,1.7-0.8,3v0.9c0,1.3,0.3,2.3,0.8,3c0.6,0.7,1.3,1.1,2.3,1.1
		c1.1,0,1.8-0.2,2.3-0.7v-2.4h-2.5v-1.6h4.6V38.9z"/>
	<path class="st1" d="M109.5,40.5h-2.1V28.4h2.1V40.5z"/>
	<path class="st1" d="M123.1,37.7h-4.7l-1,2.8h-2.2l4.6-12.1h1.9l4.6,12.1h-2.2L123.1,37.7z M119,36h3.5l-1.8-5L119,36z"/>
	<path class="st1" d="M129.8,38.8h5.5v1.7h-7.6V28.4h2.1V38.8z"/>
	<path class="st1" d="M149.4,30.1h-3.8v10.4h-2.1V30.1h-3.7v-1.7h9.6V30.1z"/>
	<path class="st1" d="M159.9,28.4v8.1c0,1.3-0.4,2.3-1.2,3.1c-0.8,0.8-1.9,1.1-3.3,1.1c-1.4,0-2.5-0.4-3.3-1.1
		c-0.8-0.7-1.2-1.8-1.2-3.1v-8.1h2.1v8.1c0,0.8,0.2,1.4,0.6,1.9c0.4,0.4,1,0.6,1.8,0.6c1.6,0,2.4-0.9,2.4-2.6v-8H159.9z"/>
	<path class="st1" d="M171.8,34.7c0,1.2-0.2,2.2-0.6,3.1c-0.4,0.9-1,1.6-1.8,2.1c-0.8,0.5-1.6,0.7-2.6,0.7c-1,0-1.9-0.2-2.6-0.7
		c-0.8-0.5-1.4-1.2-1.8-2.1c-0.4-0.9-0.6-1.9-0.6-3.1v-0.7c0-1.2,0.2-2.2,0.6-3.1c0.4-0.9,1-1.6,1.8-2.1c0.8-0.5,1.6-0.7,2.6-0.7
		c1,0,1.9,0.2,2.6,0.7c0.8,0.5,1.4,1.2,1.8,2s0.6,1.9,0.6,3.1V34.7z M169.7,34.1c0-1.3-0.3-2.4-0.8-3.1c-0.5-0.7-1.2-1.1-2.2-1.1
		c-0.9,0-1.6,0.4-2.1,1.1c-0.5,0.7-0.8,1.7-0.8,3v0.7c0,1.3,0.3,2.4,0.8,3.1c0.5,0.7,1.2,1.1,2.2,1.1c0.9,0,1.6-0.4,2.2-1.1
		c0.5-0.7,0.8-1.7,0.8-3.1V34.1z"/>
	<path class="st1" d="M180.2,36v4.5h-2.1V28.4h4.6c1.4,0,2.4,0.4,3.2,1.1c0.8,0.7,1.2,1.6,1.2,2.8c0,1.2-0.4,2.1-1.2,2.8
		c-0.8,0.7-1.9,1-3.3,1H180.2z M180.2,34.3h2.5c0.7,0,1.3-0.2,1.7-0.5c0.4-0.4,0.6-0.9,0.6-1.5c0-0.7-0.2-1.2-0.6-1.6
		s-0.9-0.6-1.6-0.6h-2.6V34.3z"/>
	<path class="st1" d="M196.1,35.1h-5v3.7h5.8v1.7H189V28.4h7.9v1.7h-5.8v3.3h5V35.1z"/>
	<path class="st1" d="M203.1,35.8h-2.3v4.7h-2.1V28.4h4.3c1.4,0,2.5,0.3,3.2,0.9c0.8,0.6,1.1,1.5,1.1,2.7c0,0.8-0.2,1.5-0.6,2
		c-0.4,0.5-0.9,1-1.6,1.3l2.7,5v0.1h-2.3L203.1,35.8z M200.8,34.1h2.2c0.7,0,1.3-0.2,1.7-0.5s0.6-0.8,0.6-1.5c0-0.6-0.2-1.2-0.6-1.5
		c-0.4-0.4-0.9-0.5-1.7-0.5h-2.2V34.1z"/>
	<path class="st1" d="M218.5,36.5c-0.1,1.3-0.6,2.3-1.4,3c-0.8,0.7-1.9,1.1-3.3,1.1c-1,0-1.8-0.2-2.6-0.7c-0.7-0.5-1.3-1.1-1.7-2
		c-0.4-0.8-0.6-1.8-0.6-2.9v-1.1c0-1.1,0.2-2.1,0.6-3c0.4-0.9,1-1.5,1.7-2c0.8-0.5,1.6-0.7,2.6-0.7c1.3,0,2.4,0.4,3.2,1.1
		s1.3,1.7,1.4,3.1h-2.1c-0.1-0.9-0.4-1.5-0.8-1.9c-0.4-0.4-1-0.6-1.8-0.6c-0.9,0-1.6,0.3-2.1,1c-0.5,0.7-0.7,1.7-0.8,2.9v1.1
		c0,1.3,0.2,2.3,0.7,3c0.5,0.7,1.2,1,2.1,1c0.8,0,1.4-0.2,1.9-0.6c0.4-0.4,0.7-1,0.8-1.9H218.5z"/>
	<path class="st1" d="M230.1,34.7c0,1.2-0.2,2.2-0.6,3.1c-0.4,0.9-1,1.6-1.8,2.1c-0.8,0.5-1.6,0.7-2.6,0.7c-1,0-1.9-0.2-2.6-0.7
		c-0.8-0.5-1.4-1.2-1.8-2.1c-0.4-0.9-0.6-1.9-0.6-3.1v-0.7c0-1.2,0.2-2.2,0.6-3.1c0.4-0.9,1-1.6,1.8-2.1c0.8-0.5,1.6-0.7,2.6-0.7
		c1,0,1.9,0.2,2.6,0.7c0.8,0.5,1.4,1.2,1.8,2s0.6,1.9,0.6,3.1V34.7z M228,34.1c0-1.3-0.3-2.4-0.8-3.1c-0.5-0.7-1.2-1.1-2.2-1.1
		c-0.9,0-1.6,0.4-2.1,1.1c-0.5,0.7-0.8,1.7-0.8,3v0.7c0,1.3,0.3,2.4,0.8,3.1c0.5,0.7,1.2,1.1,2.2,1.1c0.9,0,1.6-0.4,2.2-1.1
		c0.5-0.7,0.8-1.7,0.8-3.1V34.1z"/>
	<path class="st1" d="M236.6,35.8h-2.3v4.7h-2.1V28.4h4.3c1.4,0,2.5,0.3,3.2,0.9c0.8,0.6,1.1,1.5,1.1,2.7c0,0.8-0.2,1.5-0.6,2
		c-0.4,0.5-0.9,1-1.6,1.3l2.7,5v0.1h-2.3L236.6,35.8z M234.3,34.1h2.2c0.7,0,1.3-0.2,1.7-0.5s0.6-0.8,0.6-1.5c0-0.6-0.2-1.2-0.6-1.5
		c-0.4-0.4-0.9-0.5-1.7-0.5h-2.2V34.1z"/>
	<path class="st1" d="M249.2,37.4c0-0.5-0.2-0.9-0.6-1.2c-0.4-0.3-1-0.6-2-0.9c-1-0.3-1.8-0.6-2.3-1c-1.1-0.7-1.7-1.6-1.7-2.7
		c0-1,0.4-1.8,1.2-2.4c0.8-0.6,1.8-0.9,3.1-0.9c0.8,0,1.6,0.2,2.3,0.5c0.7,0.3,1.2,0.8,1.6,1.3s0.6,1.2,0.6,1.9h-2.1
		c0-0.6-0.2-1.1-0.6-1.5c-0.4-0.4-1-0.5-1.7-0.5c-0.7,0-1.2,0.1-1.6,0.4c-0.4,0.3-0.6,0.7-0.6,1.2c0,0.4,0.2,0.8,0.6,1.1
		c0.4,0.3,1.1,0.6,2,0.9c0.9,0.3,1.7,0.6,2.3,1s1,0.8,1.3,1.2c0.3,0.5,0.4,1,0.4,1.6c0,1-0.4,1.8-1.2,2.4c-0.8,0.6-1.8,0.9-3.2,0.9
		c-0.9,0-1.7-0.2-2.4-0.5c-0.7-0.3-1.3-0.8-1.7-1.3c-0.4-0.6-0.6-1.2-0.6-2h2.1c0,0.7,0.2,1.2,0.7,1.6c0.5,0.4,1.1,0.6,2,0.6
		c0.7,0,1.3-0.1,1.7-0.4C249,38.2,249.2,37.8,249.2,37.4z"/>
	<path class="st1" d="M262.8,34.7c0,1.2-0.2,2.2-0.6,3.1c-0.4,0.9-1,1.6-1.8,2.1c-0.8,0.5-1.6,0.7-2.6,0.7c-1,0-1.9-0.2-2.6-0.7
		c-0.8-0.5-1.4-1.2-1.8-2.1c-0.4-0.9-0.6-1.9-0.6-3.1v-0.7c0-1.2,0.2-2.2,0.6-3.1c0.4-0.9,1-1.6,1.8-2.1c0.8-0.5,1.6-0.7,2.6-0.7
		s1.9,0.2,2.6,0.7c0.8,0.5,1.4,1.2,1.8,2s0.6,1.9,0.6,3.1V34.7z M260.7,34.1c0-1.3-0.3-2.4-0.8-3.1c-0.5-0.7-1.2-1.1-2.2-1.1
		c-0.9,0-1.6,0.4-2.1,1.1c-0.5,0.7-0.8,1.7-0.8,3v0.7c0,1.3,0.3,2.4,0.8,3.1c0.5,0.7,1.2,1.1,2.2,1.1c0.9,0,1.6-0.4,2.2-1.1
		c0.5-0.7,0.8-1.7,0.8-3.1V34.1z"/>
</g>
</svg>
