<?xml version="1.0" encoding="utf-8"?>
<!-- Generator: Adobe Illustrator 21.1.0, SVG Export Plug-In . SVG Version: 6.00 Build 0)  -->
<svg version="1.1" id="Layer_1" xmlns="http://www.w3.org/2000/svg" xmlns:xlink="http://www.w3.org/1999/xlink" x="0px" y="0px"
	 viewBox="0 0 395 70" style="enable-background:new 0 0 395 70;" xml:space="preserve">
<style type="text/css">
	.st0{fill:#0E4799;}
	.st1{fill:#FFFFFF;}
</style>
<g>
	<rect class="st0" width="395" height="70"/>
</g>
<g>
	<path class="st1" d="M90.1,37.7h-4.7l-1,2.8h-2.2l4.6-12.1h1.9l4.6,12.1h-2.2L90.1,37.7z M86,36h3.5l-1.8-5L86,36z"/>
	<path class="st1" d="M103.7,38.9c-0.4,0.6-1,1-1.8,1.3s-1.7,0.4-2.6,0.4c-1,0-1.9-0.2-2.7-0.7c-0.8-0.5-1.4-1.1-1.8-2
		s-0.6-1.9-0.7-3V34c0-1.8,0.4-3.3,1.3-4.3c0.9-1,2.1-1.5,3.7-1.5c1.3,0,2.4,0.3,3.2,1s1.3,1.6,1.4,2.9h-2.1
		c-0.2-1.5-1.1-2.2-2.5-2.2c-0.9,0-1.7,0.3-2.2,1s-0.7,1.7-0.8,3v0.9c0,1.3,0.3,2.3,0.8,3c0.6,0.7,1.3,1.1,2.3,1.1
		c1.1,0,1.8-0.2,2.3-0.7v-2.4H99v-1.6h4.6v4.7H103.7z"/>
	<path class="st1" d="M115.4,38.9c-0.4,0.6-1,1-1.8,1.3c-0.8,0.3-1.7,0.4-2.6,0.4c-1,0-1.9-0.2-2.7-0.7s-1.4-1.1-1.8-2
		c-0.4-0.9-0.6-1.9-0.7-3V34c0-1.8,0.4-3.3,1.3-4.3c0.9-1,2.1-1.5,3.7-1.5c1.3,0,2.4,0.3,3.2,1c0.8,0.7,1.3,1.6,1.4,2.9h-2.1
		c-0.2-1.5-1.1-2.2-2.5-2.2c-0.9,0-1.7,0.3-2.2,1s-0.7,1.7-0.8,3v0.9c0,1.3,0.3,2.3,0.8,3c0.6,0.7,1.3,1.1,2.3,1.1
		c1.1,0,1.8-0.2,2.3-0.7v-2.4h-2.5v-1.6h4.6L115.4,38.9L115.4,38.9z"/>
	<path class="st1" d="M119.9,40.5h-2.1V28.4h2.1V40.5z"/>
	<path class="st1" d="M131.3,28.4v8.1c0,1.3-0.4,2.3-1.2,3.1c-0.8,0.8-1.9,1.1-3.3,1.1s-2.5-0.4-3.3-1.1c-0.8-0.7-1.2-1.8-1.2-3.1
		v-8.1h2.1v8.1c0,0.8,0.2,1.4,0.6,1.9c0.4,0.4,1,0.6,1.8,0.6c1.6,0,2.4-0.9,2.4-2.6v-8C129.2,28.4,131.3,28.4,131.3,28.4z"/>
	<path class="st1" d="M143.2,40.5h-2.1l-5.4-8.6v8.6h-2.1V28.4h2.1l5.4,8.6v-8.6h2.1V40.5z"/>
	<path class="st1" d="M155,38.9c-0.4,0.6-1,1-1.8,1.3c-0.8,0.3-1.7,0.4-2.6,0.4c-1,0-1.9-0.2-2.7-0.7s-1.4-1.1-1.8-2s-0.6-1.9-0.7-3
		V34c0-1.8,0.4-3.3,1.3-4.3s2.1-1.5,3.7-1.5c1.3,0,2.4,0.3,3.2,1c0.8,0.7,1.3,1.6,1.4,2.9h-2.1c-0.2-1.5-1.1-2.2-2.5-2.2
		c-0.9,0-1.7,0.3-2.2,1s-0.7,1.7-0.8,3v0.9c0,1.3,0.3,2.3,0.8,3c0.6,0.7,1.3,1.1,2.3,1.1c1.1,0,1.8-0.2,2.3-0.7v-2.4h-2.5v-1.6h4.6
		L155,38.9L155,38.9z"/>
	<path class="st1" d="M159.5,40.5h-2.1V28.4h2.1V40.5z"/>
	<path class="st1" d="M173.1,37.7h-4.7l-1,2.8h-2.2l4.6-12.1h1.9l4.6,12.1h-2.2L173.1,37.7z M169,36h3.5l-1.8-5L169,36z"/>
	<path class="st1" d="M179.8,38.8h5.5v1.7h-7.6V28.4h2.1V38.8z"/>
	<path class="st1" d="M199.4,30.1h-3.8v10.4h-2.1V30.1h-3.7v-1.7h9.6V30.1z"/>
	<path class="st1" d="M209.9,28.4v8.1c0,1.3-0.4,2.3-1.2,3.1c-0.8,0.8-1.9,1.1-3.3,1.1c-1.4,0-2.5-0.4-3.3-1.1
		c-0.8-0.7-1.2-1.8-1.2-3.1v-8.1h2.1v8.1c0,0.8,0.2,1.4,0.6,1.9c0.4,0.4,1,0.6,1.8,0.6c1.6,0,2.4-0.9,2.4-2.6v-8
		C207.8,28.4,209.9,28.4,209.9,28.4z"/>
	<path class="st1" d="M221.8,34.7c0,1.2-0.2,2.2-0.6,3.1c-0.4,0.9-1,1.6-1.8,2.1c-0.8,0.5-1.6,0.7-2.6,0.7s-1.9-0.2-2.6-0.7
		c-0.8-0.5-1.4-1.2-1.8-2.1c-0.4-0.9-0.6-1.9-0.6-3.1V34c0-1.2,0.2-2.2,0.6-3.1c0.4-0.9,1-1.6,1.8-2.1c0.8-0.5,1.6-0.7,2.6-0.7
		s1.9,0.2,2.6,0.7c0.8,0.5,1.4,1.2,1.8,2c0.4,0.8,0.6,1.9,0.6,3.1V34.7z M219.7,34.1c0-1.3-0.3-2.4-0.8-3.1s-1.2-1.1-2.2-1.1
		c-0.9,0-1.6,0.4-2.1,1.1s-0.8,1.7-0.8,3v0.7c0,1.3,0.3,2.4,0.8,3.1c0.5,0.7,1.2,1.1,2.2,1.1c0.9,0,1.6-0.4,2.2-1.1
		c0.5-0.7,0.8-1.7,0.8-3.1L219.7,34.1L219.7,34.1z"/>
	<path class="st1" d="M230.2,36v4.5h-2.1V28.4h4.6c1.4,0,2.4,0.4,3.2,1.1c0.8,0.7,1.2,1.6,1.2,2.8c0,1.2-0.4,2.1-1.2,2.8
		c-0.8,0.7-1.9,1-3.3,1L230.2,36L230.2,36z M230.2,34.3h2.5c0.7,0,1.3-0.2,1.7-0.5c0.4-0.4,0.6-0.9,0.6-1.5c0-0.7-0.2-1.2-0.6-1.6
		c-0.4-0.4-0.9-0.6-1.6-0.6h-2.6L230.2,34.3L230.2,34.3z"/>
	<path class="st1" d="M246.1,35.1h-5v3.7h5.8v1.7H239V28.4h7.9v1.7h-5.8v3.3h5V35.1L246.1,35.1z"/>
	<path class="st1" d="M253.1,35.8h-2.3v4.7h-2.1V28.4h4.3c1.4,0,2.5,0.3,3.2,0.9c0.8,0.6,1.1,1.5,1.1,2.7c0,0.8-0.2,1.5-0.6,2
		s-0.9,1-1.6,1.3l2.7,5v0.1h-2.3L253.1,35.8z M250.8,34.1h2.2c0.7,0,1.3-0.2,1.7-0.5s0.6-0.8,0.6-1.5c0-0.6-0.2-1.2-0.6-1.5
		c-0.4-0.4-0.9-0.5-1.7-0.5h-2.2V34.1z"/>
	<path class="st1" d="M268.5,36.5c-0.1,1.3-0.6,2.3-1.4,3s-1.9,1.1-3.3,1.1c-1,0-1.8-0.2-2.6-0.7c-0.7-0.5-1.3-1.1-1.7-2
		c-0.4-0.8-0.6-1.8-0.6-2.9v-1.1c0-1.1,0.2-2.1,0.6-3s1-1.5,1.7-2c0.8-0.5,1.6-0.7,2.6-0.7c1.3,0,2.4,0.4,3.2,1.1
		c0.8,0.7,1.3,1.7,1.4,3.1h-2.1c-0.1-0.9-0.4-1.5-0.8-1.9s-1-0.6-1.8-0.6c-0.9,0-1.6,0.3-2.1,1s-0.7,1.7-0.8,2.9v1.1
		c0,1.3,0.2,2.3,0.7,3s1.2,1,2.1,1c0.8,0,1.4-0.2,1.9-0.6c0.4-0.4,0.7-1,0.8-1.9h2.2V36.5z"/>
	<path class="st1" d="M280.1,34.7c0,1.2-0.2,2.2-0.6,3.1c-0.4,0.9-1,1.6-1.8,2.1c-0.8,0.5-1.6,0.7-2.6,0.7s-1.9-0.2-2.6-0.7
		c-0.8-0.5-1.4-1.2-1.8-2.1c-0.4-0.9-0.6-1.9-0.6-3.1V34c0-1.2,0.2-2.2,0.6-3.1s1-1.6,1.8-2.1c0.8-0.5,1.6-0.7,2.6-0.7
		s1.9,0.2,2.6,0.7c0.8,0.5,1.4,1.2,1.8,2c0.4,0.8,0.6,1.9,0.6,3.1V34.7z M278,34.1c0-1.3-0.3-2.4-0.8-3.1s-1.2-1.1-2.2-1.1
		c-0.9,0-1.6,0.4-2.1,1.1s-0.8,1.7-0.8,3v0.7c0,1.3,0.3,2.4,0.8,3.1c0.5,0.7,1.2,1.1,2.2,1.1c0.9,0,1.6-0.4,2.2-1.1
		c0.5-0.7,0.8-1.7,0.8-3.1v-0.6H278z"/>
	<path class="st1" d="M286.6,35.8h-2.3v4.7h-2.1V28.4h4.3c1.4,0,2.5,0.3,3.2,0.9c0.8,0.6,1.1,1.5,1.1,2.7c0,0.8-0.2,1.5-0.6,2
		s-0.9,1-1.6,1.3l2.7,5v0.1H289L286.6,35.8z M284.3,34.1h2.2c0.7,0,1.3-0.2,1.7-0.5s0.6-0.8,0.6-1.5c0-0.6-0.2-1.2-0.6-1.5
		c-0.4-0.4-0.9-0.5-1.7-0.5h-2.2V34.1z"/>
	<path class="st1" d="M299.2,37.4c0-0.5-0.2-0.9-0.6-1.2s-1-0.6-2-0.9c-1-0.3-1.8-0.6-2.3-1c-1.1-0.7-1.7-1.6-1.7-2.7
		c0-1,0.4-1.8,1.2-2.4c0.8-0.6,1.8-0.9,3.1-0.9c0.8,0,1.6,0.2,2.3,0.5c0.7,0.3,1.2,0.8,1.6,1.3c0.4,0.5,0.6,1.2,0.6,1.9h-2.1
		c0-0.6-0.2-1.1-0.6-1.5s-1-0.5-1.7-0.5c-0.7,0-1.2,0.1-1.6,0.4c-0.4,0.3-0.6,0.7-0.6,1.2c0,0.4,0.2,0.8,0.6,1.1s1.1,0.6,2,0.9
		c0.9,0.3,1.7,0.6,2.3,1s1,0.8,1.3,1.2c0.3,0.5,0.4,1,0.4,1.6c0,1-0.4,1.8-1.2,2.4c-0.8,0.6-1.8,0.9-3.2,0.9c-0.9,0-1.7-0.2-2.4-0.5
		c-0.7-0.3-1.3-0.8-1.7-1.3c-0.4-0.6-0.6-1.2-0.6-2h2.1c0,0.7,0.2,1.2,0.7,1.6c0.5,0.4,1.1,0.6,2,0.6c0.7,0,1.3-0.1,1.7-0.4
		C299,38.2,299.2,37.8,299.2,37.4z"/>
	<path class="st1" d="M312.8,34.7c0,1.2-0.2,2.2-0.6,3.1c-0.4,0.9-1,1.6-1.8,2.1s-1.6,0.7-2.6,0.7s-1.9-0.2-2.6-0.7
		c-0.8-0.5-1.4-1.2-1.8-2.1c-0.4-0.9-0.6-1.9-0.6-3.1V34c0-1.2,0.2-2.2,0.6-3.1c0.4-0.9,1-1.6,1.8-2.1c0.8-0.5,1.6-0.7,2.6-0.7
		s1.9,0.2,2.6,0.7c0.8,0.5,1.4,1.2,1.8,2s0.6,1.9,0.6,3.1V34.7z M310.7,34.1c0-1.3-0.3-2.4-0.8-3.1s-1.2-1.1-2.2-1.1
		c-0.9,0-1.6,0.4-2.1,1.1s-0.8,1.7-0.8,3v0.7c0,1.3,0.3,2.4,0.8,3.1c0.5,0.7,1.2,1.1,2.2,1.1c0.9,0,1.6-0.4,2.2-1.1
		c0.5-0.7,0.8-1.7,0.8-3.1v-0.6H310.7z"/>
</g>
</svg>
