<?xml version="1.0" encoding="utf-8"?>
<!-- Generator: Adobe Illustrator 19.0.0, SVG Export Plug-In . SVG Version: 6.00 Build 0)  -->
<svg version="1.1" id="Layer_1" xmlns="http://www.w3.org/2000/svg" xmlns:xlink="http://www.w3.org/1999/xlink" x="0px" y="0px"
	 viewBox="0 0 24 24" style="enable-background:new 0 0 24 24;" xml:space="preserve">
<style type="text/css">
	.st0{fill:none;}
	.st1{fill:#F37D22;}
</style>
<g id="XMLID_1_">
	<g>
		<rect id="XMLID_2_" class="st0" width="24" height="24"/>
	</g>
	<g>
		<path id="XMLID_6_" class="st1" d="M9.3,24c-0.4,0-0.8-0.1-1.1-0.4c-0.6-0.6-0.6-1.5,0-2.1L21.4,8.2c0.6-0.6,1.5-0.6,2.1,0
			s0.6,1.5,0,2.1L10.4,23.5C10.1,23.8,9.7,24,9.3,24z"/>
	</g>
	<g id="XMLID_813_">
		<path id="XMLID_3_" class="st1" d="M12.2,8.9h1v1.8h-1v2.1H9.9v-2.1H6L5.9,9.2l4-6.4v0h2.3V8.9z M8.1,8.9h1.8V5.8L9.7,6L8.1,8.9z"
			/>
	</g>
</g>
</svg>
