<?xml version="1.0" encoding="utf-8"?>
<!-- Generator: Adobe Illustrator 19.2.1, SVG Export Plug-In . SVG Version: 6.00 Build 0)  -->
<svg version="1.1" id="Livello_1" xmlns="http://www.w3.org/2000/svg" xmlns:xlink="http://www.w3.org/1999/xlink" x="0px" y="0px"
	 viewBox="0 0 25 25" style="enable-background:new 0 0 25 25;" xml:space="preserve">
<style type="text/css">
	.st0{fill:#154575;}
</style>
<g id="XMLID_175_">
	<path id="XMLID_176_" class="st0" d="M14.7,0.6C9.4,0.6,5,4.9,5,10.3c0,2.1,0.7,4.1,1.9,5.7L1,21.9c-0.6,0.6-0.6,1.5,0,2.1
		c0.3,0.3,0.7,0.4,1,0.4c0.4,0,0.8-0.1,1-0.4L9,18.1c1.6,1.2,3.6,1.9,5.7,1.9c5.3,0,9.7-4.3,9.7-9.7S20.1,0.6,14.7,0.6z M14.7,18.4
		c-4.5,0-8.1-3.6-8.1-8.1s3.6-8.1,8.1-8.1c4.5,0,8.1,3.6,8.1,8.1S19.2,18.4,14.7,18.4z"/>
</g>
</svg>
