<?xml version="1.0" encoding="utf-8"?>
<!-- Generator: Adobe Illustrator 19.0.0, SVG Export Plug-In . SVG Version: 6.00 Build 0)  -->
<svg version="1.1" id="Livello_1" xmlns="http://www.w3.org/2000/svg" xmlns:xlink="http://www.w3.org/1999/xlink" x="0px" y="0px"
	 viewBox="-237 48 25 25" style="enable-background:new -237 48 25 25;" xml:space="preserve">
<style type="text/css">
	.st0{fill:#154575;stroke:#154575;stroke-linecap:round;stroke-linejoin:round;stroke-miterlimit:10;}
	.st1{fill:#154575;}
	.st2{fill:#FFFFFF;stroke:#FFFFFF;stroke-width:0.9106;stroke-linecap:round;stroke-linejoin:round;stroke-miterlimit:10;}
	.st3{fill:none;stroke:#FFFFFF;stroke-width:1.2906;stroke-linecap:round;stroke-linejoin:round;stroke-miterlimit:10;}
	.st4{fill:#FFFFFF;}
</style>
<g>
	<path class="st0" d="M-225.5,67.9c-2.8,2.8-6.6,4.5-10.8,4.5h0c2.8-2.8,4.3-6.4,4.5-10.1C-231.7,58.1-222.8,65.1-225.5,67.9z"/>
	<g>
		<circle class="st1" cx="-224.5" cy="60.5" r="12.5"/>
		<g>
			<rect x="-225.7" y="59.1" class="st2" width="3.3" height="8.6"/>
			<line class="st3" x1="-221.2" y1="68.3" x2="-227" y2="68.3"/>
			<g>
				<path class="st4" d="M-226.3,54.8c0-0.6,0.2-1.1,0.6-1.5c0.4-0.4,0.9-0.6,1.7-0.6s1.3,0.2,1.7,0.6c0.4,0.4,0.6,0.9,0.6,1.5
					c0,0.6-0.2,1.1-0.6,1.5c-0.4,0.4-0.9,0.6-1.7,0.6s-1.3-0.2-1.7-0.6C-226.1,55.9-226.3,55.4-226.3,54.8z"/>
			</g>
			<line class="st3" x1="-224.4" y1="59.3" x2="-227.8" y2="59.3"/>
		</g>
	</g>
</g>
</svg>
