<?xml version="1.0" encoding="utf-8"?>
<!-- Generator: Adobe Illustrator 19.0.0, SVG Export Plug-In . SVG Version: 6.00 Build 0)  -->
<svg version="1.1" id="Livello_1" xmlns="http://www.w3.org/2000/svg" xmlns:xlink="http://www.w3.org/1999/xlink" x="0px" y="0px"
	 viewBox="1 0 25 25" style="enable-background:new 1 0 25 25;" xml:space="preserve">
<style type="text/css">
	.st0{fill:#FAFAFA;}
	.st1{fill:#154575;}
</style>
<g>
	<circle class="st0" cx="13.5" cy="12.5" r="12.5"/>
	<g>
		<path class="st1" d="M13.4,21.3c0.6,0,1-0.4,1-1c0-0.6-0.4-1-1-1c-0.6,0-1,0.4-1,1C12.4,20.8,12.8,21.3,13.4,21.3z"/>
		<path class="st1" d="M13.3,24.3c0.6,0,1-0.4,1-1c0-0.6-0.4-1-1-1c-0.6,0-1,0.4-1,1C12.3,23.9,12.8,24.3,13.3,24.3z"/>
		<path class="st1" d="M13.7,0C6.8-0.1,1.1,5.4,1,12.3c-0.1,3.8,1.6,7.2,4.2,9.5c0.4-2.4,1.1-4.1,2-5.4c0.7-1,1.6-1.9,2.8-2.6
			c1.1,1.2,2.6,3.3,3.5,4.6c1.1-1.5,2.3-3,3.6-4.5c1.1,0.7,2,1.7,2.7,2.7c0.8,1.3,1.4,3,1.8,5.5c2.7-2.3,4.4-5.6,4.5-9.4
			C26.1,5.8,20.6,0.1,13.7,0z M13.4,17c-0.3-0.4-0.6-0.8-0.9-1.2l0.3-2.2c0-0.1,0.1-0.2,0.3-0.2l0.7,0c0.1,0,0.2,0.1,0.3,0.2
			l0.2,2.2C14,16.2,13.7,16.6,13.4,17z M13.5,12.4c-2.1,0-3.8-1.8-3.8-3.9c0-2.1,1.8-3.8,3.9-3.8s3.8,1.8,3.8,3.9
			C17.4,10.8,15.6,12.4,13.5,12.4z"/>
	</g>
</g>
</svg>
