<?xml version="1.0" encoding="utf-8"?>
<!-- Generator: Adobe Illustrator 19.0.0, SVG Export Plug-In . SVG Version: 6.00 Build 0)  -->
<svg version="1.1" id="Livello_1" xmlns="http://www.w3.org/2000/svg" xmlns:xlink="http://www.w3.org/1999/xlink" x="0px" y="0px"
	 viewBox="-237 48 25 25" style="enable-background:new -237 48 25 25;" xml:space="preserve">
<style type="text/css">
	.st0{fill:#154575;}
	.st1{fill:#FAFAFA;}
</style>
<g>
	<circle class="st0" cx="-224.5" cy="60.5" r="12.5"/>
	<g>
		<g>
			<path class="st1" d="M-220.7,55.9c-0.3,0.1-0.5,0.2-0.7,0.4c-0.4,0.5-1,1.1-1,1.7c0,0.4,0.7,0.9,1.2,1.3c0.3,0.3,0.7,0.4,1.1,0.5
				c0.6,0.1,1.5,0.4,1.9,0.1c0.4-0.4,0.7-1.3,0.6-1.9c-0.3-4.3-4.3-7.2-8.6-6.4c-3.2,0.7-5.7,3.8-5.5,7c0.1,1.4,0.9,1.9,2.1,1.4
				c0.6-0.3,1.2-0.5,1.8-0.8c1.4-0.7,1.5-1.8,0.3-2.7c-0.3-0.2-0.6-0.4-0.9-0.5C-226.4,53.2-222.7,53.1-220.7,55.9z M-222.8,68.2
				c-1.6,0-3.2,0-4.7,0c-1.6,0-1.9-0.3-1.9-1.9c0-2,0-3.9,0-5.8c-0.9-0.1-1.3,0.1-1.3,0.9c0.1,1.9,0,3.8,0,5.7
				c0,1.5,0.9,2.4,2.4,2.4c1.8,0,3.5,0,5.3,0c1.6,0,4.6-2.3,4.7-3.8c0.2-1.7,0-3.4,0-5.2c-0.5,0-0.8,0-1.2,0c0,1.2-0.1,2.3,0,3.4
				c0.1,1.2-0.3,1.6-1.5,1.5c-1.3-0.1-1.8,0.4-1.9,1.7C-222.7,67.5-222.7,67.7-222.8,68.2z"/>
		</g>
		<g>
			<path class="st1" d="M-220.7,55.9c-2-2.8-5.7-2.8-7.6,0c0.3,0.2,0.6,0.3,0.9,0.5c1.2,0.9,1.1,2-0.3,2.7c-0.6,0.3-1.2,0.6-1.8,0.8
				c-1.2,0.5-2,0-2.1-1.4c-0.2-3.2,2.3-6.3,5.5-7c4.3-0.9,8.2,2,8.6,6.4c0.1,0.7-0.2,1.6-0.6,1.9c-0.3,0.3-1.2,0-1.9-0.1
				c-0.4-0.1-0.8-0.3-1.1-0.5c-0.5-0.4-1.2-0.9-1.2-1.3c0-0.6,0.6-1.1,1-1.7C-221.2,56.1-220.9,56.1-220.7,55.9z"/>
		</g>
		<g>
			<path class="st1" d="M-222.8,68.2c0-0.5,0-0.7,0.1-1c0.1-1.3,0.5-1.8,1.9-1.7c1.2,0.1,1.6-0.3,1.5-1.5c-0.1-1.1,0-2.2,0-3.4
				c0.5,0,0.8,0,1.2,0c0,1.7,0.1,3.5,0,5.2c-0.2,1.5-3.2,3.7-4.7,3.8c-1.8,0-3.5,0-5.3,0c-1.4,0-2.4-0.9-2.4-2.4c0-1.9,0-3.8,0-5.7
				c0-0.9,0.4-1.1,1.3-0.9c0,1.9,0,3.9,0,5.8c0,1.6,0.3,1.9,1.9,1.9C-225.9,68.2-224.4,68.2-222.8,68.2z"/>
		</g>
		<g>
			<path class="st1" d="M-226.4,62.1h-1.1v1.1h-0.6v-2.8h1.8v0.5h-1.2v0.7h1.1V62.1z"/>
			<path class="st1" d="M-224.4,62.7h-1l-0.2,0.6h-0.6l1-2.8h0.5l1,2.8h-0.6L-224.4,62.7z M-225.3,62.2h0.7l-0.4-1L-225.3,62.2z"/>
			<path class="st1" d="M-222,61.4l0.5-1h0.7l-0.8,1.4l0.8,1.4h-0.7l-0.5-1l-0.5,1h-0.7l0.8-1.4l-0.8-1.4h0.7L-222,61.4z"/>
		</g>
	</g>
</g>
</svg>
