<?xml version="1.0" encoding="utf-8"?>
<!-- Generator: Adobe Illustrator 19.0.0, SVG Export Plug-In . SVG Version: 6.00 Build 0)  -->
<svg version="1.1" id="Layer_1" xmlns="http://www.w3.org/2000/svg" xmlns:xlink="http://www.w3.org/1999/xlink" x="0px" y="0px"
	 viewBox="0 0 24 24" style="enable-background:new 0 0 24 24;" xml:space="preserve">
<style type="text/css">
	.st0{fill:none;}
	.st1{fill:#F6BC27;}
</style>
<g id="XMLID_1_">
	<g>
		<rect id="XMLID_2_" y="0" class="st0" width="24" height="24"/>
	</g>
	<g>
		<path id="XMLID_5_" class="st1" d="M21.3,21.3H2.7c-0.8,0-1.5-0.7-1.5-1.5s0.7-1.5,1.5-1.5h18.7c0.8,0,1.5,0.7,1.5,1.5
			S22.2,21.3,21.3,21.3z"/>
	</g>
	<g id="XMLID_815_">
		<path id="XMLID_3_" class="st1" d="M10.7,8.1h1.1c0.9,0,1.3-0.4,1.3-1.3c0-0.3-0.1-0.6-0.3-0.8c-0.2-0.2-0.5-0.3-0.9-0.3
			c-0.3,0-0.6,0.1-0.8,0.3s-0.3,0.4-0.3,0.7H8.4c0-0.5,0.1-1,0.4-1.4s0.7-0.7,1.2-1c0.5-0.2,1.1-0.3,1.7-0.3c1.1,0,2,0.3,2.6,0.8
			s1,1.2,1,2.1c0,0.4-0.1,0.8-0.4,1.2c-0.3,0.4-0.6,0.7-1.1,0.9c0.5,0.2,0.9,0.5,1.2,0.9s0.5,0.9,0.5,1.4c0,0.9-0.3,1.6-1,2.1
			s-1.6,0.8-2.7,0.8c-0.7,0-1.3-0.1-1.8-0.4c-0.6-0.2-1-0.6-1.3-1c-0.3-0.4-0.4-0.9-0.4-1.5h2.3c0,0.3,0.1,0.6,0.4,0.8
			s0.5,0.3,0.9,0.3c0.4,0,0.7-0.1,1-0.3s0.4-0.5,0.4-0.9c0-0.5-0.1-0.9-0.4-1.1s-0.6-0.3-1-0.3h-1.1V8.1z"/>
	</g>
</g>
</svg>
