<?xml version="1.0" encoding="utf-8"?>
<!-- Generator: Adobe Illustrator 19.0.0, SVG Export Plug-In . SVG Version: 6.00 Build 0)  -->
<svg version="1.1" id="Layer_1" xmlns="http://www.w3.org/2000/svg" xmlns:xlink="http://www.w3.org/1999/xlink" x="0px" y="0px"
	 viewBox="0 0 60 60" style="enable-background:new 0 0 60 60;" xml:space="preserve">
<style type="text/css">
	.st0{fill:#0E4799;}
	.st1{fill:#FFFFFF;}
</style>
<g id="XMLID_8_">
	<path id="XMLID_75_" class="st0" d="M30,60C13.5,60,0,46.5,0,30C0,13.5,13.5,0,30,0c16.5,0,30,13.5,30,30C60,46.5,46.5,60,30,60z"
		/>
	<g id="XMLID_2_">
		<path id="XMLID_70_" class="st1" d="M14.7,13.9h2.9v3.4h2.9v-3.4h2.9v9.7h-2.9v-3.8h-2.9v3.8h-2.9V13.9z"/>
		<path id="XMLID_68_" class="st1" d="M34.4,19.9c0,2.7-1.5,4-4.4,4c-2.9,0-4.4-1.3-4.4-4v-5.9h2.9v5.3c0,0.2,0,0.5,0,0.7
			c0,0.3,0.1,0.5,0.2,0.7c0.1,0.2,0.2,0.4,0.4,0.5c0.2,0.1,0.5,0.2,0.9,0.2c0.4,0,0.6-0.1,0.9-0.2c0.2-0.1,0.3-0.3,0.4-0.5
			c0.1-0.2,0.1-0.5,0.2-0.7c0-0.3,0-0.5,0-0.7v-5.3h2.9V19.9z"/>
		<path id="XMLID_63_" class="st1" d="M36.6,13.9h5.2c0.6,0,1.1,0.1,1.6,0.2c0.4,0.1,0.7,0.3,0.9,0.6c0.2,0.2,0.4,0.5,0.5,0.8
			c0.1,0.3,0.1,0.5,0.1,0.8c0,0.5-0.1,0.9-0.3,1.2c-0.2,0.3-0.5,0.5-0.9,0.7c0.5,0.1,0.8,0.4,1.2,0.8c0.3,0.4,0.5,0.9,0.5,1.6
			c0,1-0.4,1.7-1,2.2c-0.7,0.5-1.4,0.8-2.3,0.8h-5.4V13.9z M39.5,17.7h1.6c0.3,0,0.6-0.1,0.8-0.2c0.2-0.1,0.3-0.3,0.3-0.6
			c0-0.2-0.1-0.4-0.3-0.5c-0.2-0.1-0.4-0.1-0.8-0.1h-1.6V17.7z M39.5,21.3h1.8c0.3,0,0.6-0.1,0.9-0.2c0.2-0.1,0.3-0.4,0.4-0.7
			c0-0.6-0.4-0.9-1.1-0.9h-1.9V21.3z"/>
		<path id="XMLID_61_" class="st1" d="M17.4,32.7c0-0.3-0.1-0.6-0.4-0.8c-0.2-0.2-0.7-0.4-1.3-0.6c-0.6-0.2-1.1-0.4-1.5-0.6
			c-1-0.5-1.5-1.3-1.5-2.2c0-0.5,0.1-0.9,0.4-1.3c0.3-0.4,0.7-0.7,1.2-0.9c0.5-0.2,1.1-0.3,1.7-0.3c0.6,0,1.2,0.1,1.7,0.3
			c0.5,0.2,0.9,0.6,1.2,1c0.3,0.4,0.4,0.9,0.4,1.4h-1.8c0-0.4-0.1-0.7-0.4-1c-0.3-0.2-0.6-0.3-1.1-0.3c-0.4,0-0.8,0.1-1,0.3
			c-0.2,0.2-0.4,0.4-0.4,0.7c0,0.3,0.1,0.5,0.4,0.7c0.3,0.2,0.7,0.4,1.3,0.5c1,0.3,1.8,0.7,2.3,1.2c0.5,0.5,0.7,1,0.7,1.7
			c0,0.8-0.3,1.4-0.9,1.8c-0.6,0.4-1.4,0.7-2.4,0.7c-0.7,0-1.3-0.1-1.9-0.4c-0.6-0.2-1-0.6-1.3-1c-0.3-0.4-0.4-0.9-0.4-1.5h1.8
			c0,1,0.6,1.5,1.8,1.5c0.4,0,0.8-0.1,1-0.3C17.3,33.3,17.4,33,17.4,32.7z"/>
		<path id="XMLID_59_" class="st1" d="M26.6,27.6h-2.7V35h-1.8v-7.4h-2.7v-1.5h7.2V27.6z"/>
		<path id="XMLID_56_" class="st1" d="M31.1,33.2h-3.2L27.3,35h-1.9l3.3-8.9h1.7l3.3,8.9h-1.9L31.1,33.2z M28.4,31.7h2.2l-1.1-3.3
			L28.4,31.7z"/>
		<path id="XMLID_53_" class="st1" d="M37.2,31.8h-1.5V35H34v-8.9h3.3c1,0,1.9,0.2,2.4,0.7c0.6,0.5,0.9,1.1,0.9,2
			c0,0.6-0.1,1.1-0.4,1.5c-0.3,0.4-0.7,0.7-1.2,1l1.9,3.6V35h-2L37.2,31.8z M35.8,30.3h1.5c0.5,0,0.8-0.1,1.1-0.4
			c0.3-0.2,0.4-0.6,0.4-1c0-0.4-0.1-0.7-0.4-1c-0.2-0.2-0.6-0.4-1.1-0.4h-1.5V30.3z"/>
		<path id="XMLID_51_" class="st1" d="M48,27.6h-2.7V35h-1.8v-7.4h-2.7v-1.5H48V27.6z"/>
		<path id="XMLID_48_" class="st1" d="M20.6,37.6v5.9c0,1-0.3,1.7-0.9,2.3c-0.6,0.6-1.4,0.8-2.5,0.8c-1,0-1.9-0.3-2.5-0.8
			c-0.6-0.5-0.9-1.3-0.9-2.3v-5.9h1.8v5.9c0,0.6,0.1,1,0.4,1.3c0.3,0.3,0.7,0.4,1.2,0.4c1,0,1.6-0.5,1.6-1.6v-5.9H20.6z"/>
		<path id="XMLID_44_" class="st1" d="M23.4,43.4v3.1h-1.8v-8.9h3.5c0.7,0,1.3,0.1,1.8,0.4c0.5,0.2,0.9,0.6,1.2,1
			c0.3,0.5,0.4,1,0.4,1.5c0,0.9-0.3,1.6-0.9,2.1c-0.6,0.5-1.4,0.8-2.5,0.8H23.4z M23.4,41.9h1.6c0.5,0,0.9-0.1,1.1-0.3
			c0.3-0.2,0.4-0.6,0.4-1c0-0.4-0.1-0.8-0.4-1.1c-0.3-0.3-0.6-0.4-1.1-0.4h-1.7V41.9z"/>
		<path id="XMLID_41_" class="st1" d="M36.6,43.2h1v1.4h-1v1.9h-1.8v-1.9h-3.6l-0.1-1.1l3.7-5.9h1.8V43.2z M32.8,43.2h2V40l-0.1,0.2
			L32.8,43.2z"/>
		<path id="XMLID_37_" class="st1" d="M38,45.6c0-0.3,0.1-0.5,0.3-0.7c0.2-0.2,0.4-0.3,0.7-0.3c0.3,0,0.5,0.1,0.7,0.3
			c0.2,0.2,0.3,0.4,0.3,0.7c0,0.3-0.1,0.5-0.3,0.7c-0.2,0.2-0.4,0.3-0.7,0.3c-0.3,0-0.5-0.1-0.7-0.3C38.1,46.1,38,45.9,38,45.6z"/>
		<path id="XMLID_5_" class="st1" d="M46.6,42.8c0,1.2-0.3,2.2-0.8,2.8c-0.5,0.7-1.3,1-2.2,1c-1,0-1.7-0.3-2.2-1
			c-0.5-0.6-0.8-1.6-0.8-2.7v-1.6c0-1.2,0.3-2.2,0.8-2.8c0.5-0.6,1.3-1,2.2-1c1,0,1.7,0.3,2.2,1c0.5,0.6,0.8,1.6,0.8,2.7V42.8z
			 M44.8,41c0-0.7-0.1-1.3-0.3-1.6c-0.2-0.3-0.5-0.5-0.9-0.5c-0.4,0-0.7,0.2-0.9,0.5c-0.2,0.3-0.3,0.8-0.3,1.5v2.2
			c0,0.7,0.1,1.3,0.3,1.6c0.2,0.4,0.5,0.5,0.9,0.5c0.4,0,0.7-0.2,0.9-0.5c0.2-0.3,0.3-0.9,0.3-1.6V41z"/>
	</g>
</g>
</svg>
