<?xml version="1.0" encoding="utf-8"?>
<!-- Generator: Adobe Illustrator 19.2.1, SVG Export Plug-In . SVG Version: 6.00 Build 0)  -->
<svg version="1.1" id="Livello_1" xmlns="http://www.w3.org/2000/svg" xmlns:xlink="http://www.w3.org/1999/xlink" x="0px" y="0px"
	 viewBox="0 0 18 18" style="enable-background:new 0 0 18 18;" xml:space="preserve">
<style type="text/css">
	.st0{fill:#154575;}
	.st1{fill:#FAFAFA;}
</style>
<g id="XMLID_50312_">
	<circle id="XMLID_50316_" class="st0" cx="9" cy="9" r="8.9"/>
	<path id="XMLID_50313_" class="st1" d="M14.4,6.6c-0.2-0.5-0.4-1-0.8-1.4c-0.5-0.7-1.2-1.2-2-1.6C10.9,3.2,10,3.1,9.1,3.1
		c-0.6,0-1.3,0.1-1.8,0.3C6.7,3.5,6.1,3.7,5.6,4.1C4.8,4.6,4.1,5.3,3.7,6.2C3.2,7,3,8,3,9c0,0.8,0.2,1.6,0.5,2.3
		c0.3,0.7,0.7,1.4,1.3,1.9c0.6,0.5,1.2,1,1.9,1.3c0.7,0.3,1.5,0.4,2.3,0.4c0.7,0,1.3-0.1,2-0.3c0.6-0.2,1.2-0.6,1.8-1
		c0.3-0.2,0.3-0.6,0.1-0.8c-0.2-0.3-0.6-0.3-0.8-0.1c-0.4,0.3-0.9,0.6-1.4,0.8C10,13.7,9.5,13.8,9,13.8c-0.7,0-1.3-0.1-1.9-0.3
		c-0.6-0.2-1.1-0.6-1.5-1c-0.5-0.4-0.8-1-1-1.5C4.3,10.3,4.2,9.7,4.2,9c0-0.8,0.2-1.6,0.6-2.3c0.4-0.7,0.9-1.3,1.5-1.7
		c0.4-0.3,0.8-0.5,1.3-0.6c0.5-0.1,1-0.2,1.5-0.2c0.7,0,1.4,0.1,2.1,0.4c0.6,0.3,1.1,0.7,1.6,1.3c0.3,0.3,0.5,0.7,0.6,1
		c0.1,0.4,0.2,0.8,0.2,1.2c0,0.7-0.2,1.3-0.5,1.7c-0.3,0.4-0.7,0.6-1.2,0.7c-0.1,0-0.2,0-0.4,0c0.3-0.5,0.5-1,0.5-1.6
		c0-1.6-1.3-2.9-2.9-2.9C7.4,6.1,6.1,7.4,6.1,9c0,1.6,1.3,2.9,2.9,2.9c0.8,0,2.8-0.1,2.9-0.1l0.1,0c0.8-0.1,1.5-0.5,2-1.2
		c0.5-0.6,0.7-1.4,0.7-2.4C14.7,7.7,14.6,7.1,14.4,6.6z M7.3,9C7.3,8,8,7.3,9,7.3S10.7,8,10.7,9c0,1-0.8,1.7-1.7,1.7S7.3,10,7.3,9z"
		/>
</g>
</svg>
