<?xml version="1.0" encoding="utf-8"?>
<!-- Generator: Adobe Illustrator 19.0.0, SVG Export Plug-In . SVG Version: 6.00 Build 0)  -->
<svg version="1.1" id="Livello_1" xmlns="http://www.w3.org/2000/svg" xmlns:xlink="http://www.w3.org/1999/xlink" x="0px" y="0px"
	 viewBox="-237 48 25 25" style="enable-background:new -237 48 25 25;" xml:space="preserve">
<style type="text/css">
	.st0{fill:none;}
	.st1{fill:#154575;}
	.st2{fill:#FFFFFF;}
</style>
<g>
	<g>
		<g>
			<circle class="st0" cx="-224.5" cy="60.5" r="12.5"/>
		</g>
		<g>
			<path class="st1" d="M-214.1,62.8c0.2-0.7,0.3-1.5,0.3-2.3c0-2.6-0.9-5-2.5-6.8l1.3-1.3c0.3-0.3,0.3-0.7,0-0.9
				c-0.3-0.3-0.7-0.3-0.9,0l-1.3,1.3c-1.9-1.8-4.5-2.9-7.3-2.9c-1.8,0-3.6,0.5-5.1,1.3v-1.7c0-0.4-0.3-0.7-0.7-0.7s-0.7,0.3-0.7,0.7
				V52c-0.1,0.1-0.2,0.1-0.3,0.2l-3.2,0c-0.4,0-0.7,0.3-0.7,0.7c0,0.4,0.3,0.7,0.7,0.7h1.8c-1.6,1.9-2.6,4.3-2.6,7
				c0,0.9,0.1,1.7,0.3,2.6c-0.2,0.2-0.3,0.3-0.5,0.5l-1.2,1.2c-0.3,0.3-0.3,0.7,0,0.9c0.1,0.1,0.3,0.2,0.5,0.2
				c0.2,0,0.3-0.1,0.5-0.2l1.2-1.2c1.6,3.9,5.4,6.7,9.9,6.7c2,0,3.9-0.6,5.6-1.6c0.5,0.5,1,1,1.4,1.4c0.1,0.1,0.3,0.2,0.5,0.2
				s0.3-0.1,0.5-0.2c0.3-0.3,0.3-0.7,0-0.9c-0.4-0.4-0.8-0.8-1.3-1.3c1.5-1.2,2.7-2.8,3.4-4.7 M-215.2,60.5c0,0.8-0.1,1.6-0.3,2.3
				h-2.6c0.2-0.3,0.3-0.6,0.3-1c0-0.5-0.2-1.1-0.5-1.5c-0.1-0.1-0.1-0.1-0.2-0.2c0,0-0.1-0.1-0.1-0.1c0,0-0.5-0.5-0.8-0.8l-0.4-0.4
				c-0.1-0.1-0.1-0.1-0.2-0.2l0,0c0,0-0.1-0.1-0.1-0.1c-0.1-0.1-0.1-0.2-0.2-0.3c-0.1-0.2,0-0.5,0.1-0.7c0,0,0.1-0.1,0.1-0.1
				c0,0,0.1-0.1,0.1-0.1l2.7-2.7C-216,56.2-215.2,58.3-215.2,60.5z M-221.8,64.8c-0.6-0.6-1.1-1.1-1.5-1.5l-1.5-1.5
				c-0.3-0.3-0.5-0.5-0.8-0.8c-0.1-0.1-0.2-0.2-0.2-0.3c-0.1-0.1-0.1-0.2-0.1-0.3c-0.1-0.3,0-0.7,0.2-1c0.1-0.1,0.1-0.1,0.2-0.2
				l0.3-0.3c0.2,0.2,0.4,0.4,0.5,0.5l2.3,2.3c0.4,0.4,0.8,0.8,1.2,1.2l0.4,0.4c0,0,0,0,0.1,0.1c0,0,0.1,0.1,0.1,0.1
				c-0.3,0.3-0.5,0.5-0.7,0.7L-221.8,64.8z M-229.6,61.1v-1.4l1.6-1.6c0.1-0.1,0.1-0.1,0.2-0.2c0,0,0.1-0.1,0.1-0.1
				c0,0,0.1-0.1,0.2-0.1c0.1-0.1,0.2-0.1,0.3-0.1h0.2c0.1,0,0.2,0,0.3,0c0.1,0,0.2,0.1,0.3,0.2c0,0,0,0,0,0l0.2,0.2l-0.3,0.3
				c-0.1,0.1-0.2,0.2-0.3,0.3c-0.5,0.6-0.6,1.4-0.5,2.1c0.1,0.2,0.1,0.5,0.3,0.7c0.1,0.2,0.2,0.3,0.4,0.5c0.3,0.3,0.5,0.5,0.8,0.8
				l1.5,1.5c0.4,0.4,0.9,0.9,1.5,1.5l-0.5,0.5c-0.1,0.1-0.2,0.2-0.2,0.2c-0.1,0.1-0.1,0.1-0.2,0.1c-0.2,0.1-0.4,0.1-0.6,0
				c-0.1,0-0.2-0.1-0.2-0.1c-0.1,0-0.1-0.1-0.2-0.2l-0.1-0.1c-0.2-0.2-0.3-0.3-0.5-0.5l-3-3c-0.2-0.2-0.5-0.5-0.7-0.7
				c-0.1-0.1-0.1-0.1-0.2-0.2l-0.2-0.2c-0.1-0.1-0.1-0.1-0.2-0.2c-0.1-0.1-0.1-0.2-0.1-0.3C-229.6,61.2-229.6,61.2-229.6,61.1z
				 M-224.9,56.7c-0.1,0.1-0.3,0.3-0.4,0.4l-0.2-0.2c-0.1-0.1-0.1-0.1-0.1-0.1c-0.2-0.2-0.4-0.3-0.7-0.4c-0.2-0.1-0.4-0.1-0.7-0.1
				h-0.2c-0.3,0-0.6,0.1-0.9,0.2c-0.2,0.1-0.3,0.2-0.4,0.3c-0.1,0.1-0.1,0.1-0.2,0.2c-0.1,0.1-0.1,0.1-0.2,0.2l-0.7,0.7v-4.3h4.7
				h0.1c0.1,0,0.2,0,0.3,0c0.1,0,0.2,0,0.3,0.1c0.2,0.1,0.4,0.2,0.5,0.4c0.2,0.2,0.3,0.5,0.3,0.7v0.2c0,0.1,0,0.3-0.1,0.4
				c-0.1,0.1-0.1,0.3-0.2,0.4c0,0-0.1,0.1-0.1,0.1l0,0c-0.1,0.1-0.2,0.2-0.3,0.3c-0.1,0.1-0.3,0.3-0.4,0.4L-224.9,56.7z
				 M-218.2,53.7l-2.2,2.2l-0.5,0.5c-0.1,0.1-0.1,0.1-0.2,0.2c-0.1,0.1-0.2,0.2-0.3,0.3c-0.3,0.5-0.4,1.2-0.2,1.8
				c0.1,0.3,0.2,0.5,0.4,0.8c0.1,0.1,0.1,0.1,0.2,0.2l0,0c0.1,0.1,0.1,0.1,0.2,0.2l0.4,0.4c0.3,0.3,0.8,0.8,0.8,0.8
				c0,0,0.1,0.1,0.1,0.1c0,0,0.1,0.1,0.1,0.1c0.1,0.2,0.2,0.4,0.2,0.6c0,0.2-0.1,0.4-0.2,0.5c0,0.1-0.2,0.2-0.4,0.4c0,0,0,0,0,0
				c0,0,0,0-0.1-0.1c0,0,0,0,0,0l-0.1-0.1c0,0-0.1-0.1-0.1-0.1l-0.3-0.3c-0.4-0.4-0.8-0.8-1.2-1.2l-2.3-2.3
				c-0.2-0.2-0.4-0.4-0.5-0.5c0.1-0.1,0.3-0.3,0.4-0.4l0.2-0.2c0.1-0.1,0.3-0.3,0.4-0.4c0.1-0.1,0.2-0.2,0.3-0.3l0,0
				c0.1-0.1,0.1-0.1,0.2-0.2c0.2-0.2,0.4-0.5,0.5-0.8c0.1-0.3,0.2-0.6,0.2-0.9v-0.2c0-0.6-0.2-1.1-0.6-1.6c-0.3-0.3-0.6-0.6-1-0.8
				c-0.2-0.1-0.4-0.1-0.6-0.2c-0.2,0-0.4,0-0.5,0h-3.9c1.3-0.6,2.7-1,4.2-1C-222.1,51.2-219.8,52.1-218.2,53.7z M-233.8,60.5
				c0-2.7,1.1-5.1,2.9-6.8v4.4v1l-1,1c-0.4,0.4-1.1,1.1-1.9,1.9C-233.8,61.5-233.8,61-233.8,60.5z M-233.4,63.4c1-1,1.9-1.9,2.4-2.4
				l0,0V61c0,0.2,0,0.3,0,0.6c0.1,0.3,0.1,0.5,0.3,0.7c0.1,0.2,0.2,0.3,0.4,0.4l0.2,0.2c0.1,0.1,0.1,0.1,0.2,0.2
				c0.2,0.2,0.5,0.5,0.7,0.7l3,3c0.2,0.2,0.3,0.3,0.5,0.5l0.1,0.1c0.1,0.1,0.2,0.2,0.4,0.3c0.2,0.1,0.4,0.2,0.6,0.3
				c0.2,0.1,0.4,0.1,0.7,0.1c0.3,0,0.6-0.1,0.8-0.2c0.2-0.1,0.4-0.2,0.6-0.4c0,0,0.2-0.1,0.2-0.2l0.5-0.5c0.6,0.6,1.3,1.3,1.9,1.9
				c-1.4,0.8-2.9,1.2-4.6,1.2C-228.6,69.8-232.1,67.2-233.4,63.4z M-218.8,67.9c-0.7-0.7-1.4-1.4-2.1-2.1l0.5-0.5
				c0.3-0.3,0.8-0.8,1.1-1.1c0.1,0,0.1,0,0.2,0h3.2C-216.5,65.6-217.5,66.9-218.8,67.9z"/>
		</g>
	</g>
	<g>
		<g>
			<circle class="st1" cx="-217.5" cy="66.8" r="5"/>
		</g>
		<g>
			<g>
				<g>
					<path class="st2" d="M-217.2,70c-0.1,0-0.2,0-0.3-0.1l-2.8-2.8c-0.1-0.1-0.1-0.2-0.1-0.3c0-0.1,0-0.2,0.1-0.3l2.8-2.8
						c0.2-0.2,0.5-0.2,0.6,0c0.2,0.2,0.2,0.5,0,0.6l-2.4,2.4l2.4,2.4c0.2,0.2,0.2,0.5,0,0.6C-217,70-217.1,70-217.2,70z"/>
				</g>
			</g>
			<g>
				<path class="st2" d="M-214,67.3C-214,67.3-214,67.3-214,67.3l-5.8,0c-0.3,0-0.5-0.2-0.5-0.5c0-0.3,0.2-0.5,0.5-0.5c0,0,0,0,0,0
					l5.8,0c0.3,0,0.5,0.2,0.5,0.5C-213.5,67-213.8,67.3-214,67.3z"/>
			</g>
		</g>
	</g>
</g>
</svg>
