<?xml version="1.0" encoding="utf-8"?>
<!-- Generator: Adobe Illustrator 21.1.0, SVG Export Plug-In . SVG Version: 6.00 Build 0)  -->
<svg version="1.1" id="Livello_1" xmlns="http://www.w3.org/2000/svg" xmlns:xlink="http://www.w3.org/1999/xlink" x="0px" y="0px"
	 viewBox="0 0 143 19" style="enable-background:new 0 0 143 19;" xml:space="preserve">
<style type="text/css">
	.st0{fill:#154575;}
</style>
<g id="XMLID_13980_">
	<g id="XMLID_13982_">
		<path class="st0" d="M13.7,11.7H3.7c-0.8,0-1.4-0.6-1.4-1.4s0.6-1.4,1.4-1.4h10.1c0.8,0,1.4,0.6,1.4,1.4S14.5,11.7,13.7,11.7z"/>
	</g>
	<g id="XMLID_13981_">
		<path class="st0" d="M8.7,16.8c-0.8,0-1.4-0.6-1.4-1.4V5.3c0-0.8,0.6-1.4,1.4-1.4s1.4,0.6,1.4,1.4v10.1
			C10.1,16.1,9.5,16.8,8.7,16.8z"/>
	</g>
</g>
<g id="XMLID_641_">
	<path class="st0" d="M39.2,13.6c0-0.5-0.2-0.9-0.6-1.2c-0.4-0.3-1-0.6-2-0.9s-1.7-0.6-2.3-1c-1.1-0.7-1.7-1.6-1.7-2.7
		c0-1,0.4-1.8,1.2-2.4s1.8-0.9,3.1-0.9c0.8,0,1.6,0.2,2.2,0.5s1.2,0.8,1.6,1.3c0.4,0.6,0.6,1.2,0.6,1.9h-2.1c0-0.6-0.2-1.1-0.6-1.5
		c-0.4-0.4-1-0.5-1.7-0.5c-0.7,0-1.2,0.1-1.6,0.4c-0.4,0.3-0.6,0.7-0.6,1.2c0,0.4,0.2,0.8,0.6,1.1s1.1,0.6,2,0.9s1.7,0.6,2.3,1
		c0.6,0.4,1,0.8,1.3,1.2s0.4,1,0.4,1.6c0,1-0.4,1.8-1.2,2.4c-0.8,0.6-1.8,0.9-3.1,0.9c-0.9,0-1.7-0.2-2.4-0.5
		c-0.7-0.3-1.3-0.8-1.7-1.3c-0.4-0.6-0.6-1.2-0.6-2h2.1c0,0.7,0.2,1.2,0.7,1.6c0.5,0.4,1.1,0.6,2,0.6c0.7,0,1.3-0.1,1.6-0.4
		S39.2,14.1,39.2,13.6z"/>
	<path class="st0" d="M52.3,12.8c-0.1,1.3-0.6,2.3-1.4,3c-0.8,0.7-1.9,1.1-3.3,1.1c-1,0-1.8-0.2-2.5-0.7c-0.7-0.5-1.3-1.1-1.7-1.9
		c-0.4-0.8-0.6-1.8-0.6-2.9v-1.1c0-1.1,0.2-2.1,0.6-3c0.4-0.9,1-1.5,1.7-2c0.8-0.5,1.6-0.7,2.6-0.7c1.3,0,2.4,0.4,3.2,1.1
		c0.8,0.7,1.3,1.7,1.4,3.1h-2.1c-0.1-0.9-0.4-1.5-0.8-1.9c-0.4-0.4-1-0.6-1.8-0.6c-0.9,0-1.6,0.3-2.1,1c-0.5,0.7-0.7,1.6-0.8,2.9
		v1.1c0,1.3,0.2,2.3,0.7,3s1.2,1,2.1,1c0.8,0,1.4-0.2,1.9-0.6c0.4-0.4,0.7-1,0.8-1.9H52.3z"/>
	<path class="st0" d="M63.9,11c0,1.2-0.2,2.2-0.6,3.1s-1,1.6-1.8,2.1s-1.6,0.7-2.6,0.7c-1,0-1.9-0.2-2.6-0.7s-1.4-1.2-1.8-2
		c-0.4-0.9-0.6-1.9-0.6-3.1v-0.7c0-1.2,0.2-2.2,0.6-3.1s1-1.6,1.8-2.1s1.6-0.7,2.6-0.7s1.9,0.2,2.6,0.7c0.8,0.5,1.3,1.2,1.8,2
		c0.4,0.9,0.6,1.9,0.6,3.1V11z M61.8,10.4c0-1.3-0.3-2.4-0.8-3.1c-0.5-0.7-1.2-1.1-2.2-1.1c-0.9,0-1.6,0.4-2.1,1.1s-0.8,1.7-0.8,3
		V11c0,1.3,0.3,2.4,0.8,3.1c0.5,0.7,1.2,1.1,2.2,1.1c0.9,0,1.6-0.4,2.1-1.1s0.8-1.7,0.8-3.1V10.4z"/>
	<path class="st0" d="M68,12.3v4.5h-2.1V4.7h4.6c1.4,0,2.4,0.4,3.2,1.1C74.6,6.4,75,7.4,75,8.5c0,1.2-0.4,2.1-1.2,2.8
		c-0.8,0.7-1.9,1-3.3,1H68z M68,10.6h2.5c0.7,0,1.3-0.2,1.7-0.5c0.4-0.4,0.6-0.9,0.6-1.5c0-0.7-0.2-1.2-0.6-1.6
		c-0.4-0.4-0.9-0.6-1.6-0.6H68V10.6z"/>
	<path class="st0" d="M81.3,12.1h-2.3v4.6h-2.1V4.7h4.3c1.4,0,2.5,0.3,3.2,0.9c0.8,0.6,1.1,1.5,1.1,2.7c0,0.8-0.2,1.5-0.6,2
		c-0.4,0.5-0.9,1-1.6,1.3l2.7,5v0.1h-2.2L81.3,12.1z M78.9,10.4h2.2c0.7,0,1.3-0.2,1.7-0.5c0.4-0.4,0.6-0.8,0.6-1.5
		c0-0.6-0.2-1.1-0.6-1.5s-0.9-0.5-1.6-0.5h-2.2V10.4z"/>
	<path class="st0" d="M89.6,16.8h-2.1V4.7h2.1V16.8z"/>
	<path class="st0" d="M96.4,16.8V4.7h3.6c1.1,0,2,0.2,2.8,0.7s1.5,1.2,1.9,2s0.7,1.9,0.7,3V11c0,1.1-0.2,2.2-0.7,3
		c-0.5,0.9-1.1,1.5-2,2c-0.8,0.5-1.8,0.7-2.9,0.7H96.4z M98.5,6.4v8.7h1.4c1.1,0,1.9-0.3,2.5-1c0.6-0.7,0.9-1.7,0.9-3v-0.7
		c0-1.3-0.3-2.3-0.9-3c-0.6-0.7-1.4-1-2.5-1H98.5z"/>
	<path class="st0" d="M109.8,16.8h-2.1V4.7h2.1V16.8z"/>
	<path class="st0" d="M118.7,12.3v4.5h-2.1V4.7h4.6c1.4,0,2.4,0.4,3.2,1.1c0.8,0.7,1.2,1.6,1.2,2.8c0,1.2-0.4,2.1-1.2,2.8
		c-0.8,0.7-1.9,1-3.3,1H118.7z M118.7,10.6h2.5c0.7,0,1.3-0.2,1.7-0.5c0.4-0.4,0.6-0.9,0.6-1.5c0-0.7-0.2-1.2-0.6-1.6
		c-0.4-0.4-0.9-0.6-1.6-0.6h-2.6V10.6z"/>
	<path class="st0" d="M129.7,16.8h-2.1V4.7h2.1V16.8z"/>
	<path class="st0" d="M141.1,4.7v8.1c0,1.3-0.4,2.3-1.2,3.1c-0.8,0.8-1.9,1.1-3.3,1.1c-1.4,0-2.5-0.4-3.3-1.1
		c-0.8-0.7-1.2-1.8-1.2-3.1V4.7h2.1v8.1c0,0.8,0.2,1.4,0.6,1.9c0.4,0.4,1,0.6,1.8,0.6c1.6,0,2.4-0.9,2.4-2.6v-8H141.1z M137.6,3.9
		l-1.7,0l-2.2-2.5h2.3L137.6,3.9z"/>
</g>
</svg>
