<?xml version="1.0" encoding="utf-8"?>
<!-- Generator: Adobe Illustrator 19.2.1, SVG Export Plug-In . SVG Version: 6.00 Build 0)  -->
<svg version="1.1" id="Livello_1" xmlns="http://www.w3.org/2000/svg" xmlns:xlink="http://www.w3.org/1999/xlink" x="0px" y="0px"
	 viewBox="0 0 80 80" style="enable-background:new 0 0 80 80;" xml:space="preserve">
<style type="text/css">
	.st0{fill:#FFFFFF;}
	.st1{fill:#F37D22;}
</style>
<g id="XMLID_22706_">
	<path id="XMLID_22712_" class="st0" d="M72.9,40C72.9,21.8,58.1,7.1,40,7.1C21.8,7.1,7.1,21.8,7.1,40S21.8,72.9,40,72.9
		C58.1,72.9,72.9,58.2,72.9,40"/>
	<path id="XMLID_22707_" class="st1" d="M40,79.4C18.3,79.4,0.6,61.8,0.6,40C0.6,18.3,18.3,0.6,40,0.6S79.4,18.3,79.4,40
		C79.4,61.8,61.7,79.4,40,79.4 M40,13.7c-14.5,0-26.3,11.8-26.3,26.3S25.5,66.3,40,66.3S66.3,54.5,66.3,40S54.5,13.7,40,13.7"/>
</g>
</svg>
