<?xml version="1.0" encoding="utf-8"?>
<!-- Generator: Adobe Illustrator 19.2.1, SVG Export Plug-In . SVG Version: 6.00 Build 0)  -->
<svg version="1.1" id="Livello_1" xmlns="http://www.w3.org/2000/svg" xmlns:xlink="http://www.w3.org/1999/xlink" x="0px" y="0px"
	 viewBox="0 0 40 40" style="enable-background:new 0 0 40 40;" xml:space="preserve">
<style type="text/css">
	.st0{fill:#FFFFFF;}
</style>
<g id="XMLID_228_">
	<g id="XMLID_230_">
		<path class="st0" d="M20,39.7C9.2,39.7,0.3,30.8,0.3,20S9.2,0.3,20,0.3c10.8,0,19.7,8.8,19.7,19.7S30.8,39.7,20,39.7z M20,2.3
			C10.3,2.3,2.3,10.3,2.3,20S10.3,37.7,20,37.7c9.7,0,17.7-7.9,17.7-17.7S29.7,2.3,20,2.3z"/>
	</g>
	<g id="XMLID_229_">
		<path class="st0" d="M14.5,32c-0.3,0-0.5-0.1-0.7-0.3c-0.4-0.4-0.4-1,0-1.4L24.1,20L13.8,9.7c-0.4-0.4-0.4-1,0-1.4s1-0.4,1.4,0
			L26.9,20L15.2,31.7C15,31.9,14.8,32,14.5,32z"/>
	</g>
</g>
</svg>
