<?xml version="1.0" encoding="utf-8"?>
<!-- Generator: Adobe Illustrator 19.2.1, SVG Export Plug-In . SVG Version: 6.00 Build 0)  -->
<svg version="1.1" id="Livello_1" xmlns="http://www.w3.org/2000/svg" xmlns:xlink="http://www.w3.org/1999/xlink" x="0px" y="0px"
	 viewBox="0 0 18 18" style="enable-background:new 0 0 18 18;" xml:space="preserve">
<style type="text/css">
	.st0{fill:#154575;}
	.st1{fill:#FAFAFA;}
</style>
<g id="XMLID_50309_">
	<circle id="XMLID_50311_" class="st0" cx="9" cy="9" r="9"/>
	<path id="XMLID_50310_" class="st1" d="M14.1,11.1c-0.1-0.2-0.3-0.4-0.5-0.5l-2.1-0.8c-0.5-0.2-1,0.1-1.2,0.5
		c-0.2,0.5-0.2,1.1,0.1,1.6c0.1,0.1,0.1,0.2,0.2,0.3c-0.3,0.1-0.6,0.1-0.9,0.1c-1.1,0-2.1-0.4-2.8-1.2c-0.7-0.7-1.2-1.7-1.2-2.8
		c0-0.3,0-0.6,0.1-0.9c0.3,0.2,0.7,0.4,1.2,0.4h0c0.2,0,0.5,0,0.7-0.1C8.1,7.6,8.3,7,8.2,6.6L7.4,4.4C7.3,4.2,7.1,4,6.9,3.9
		c-0.2-0.1-0.5-0.1-0.7,0C6,4,5.8,4.1,5.6,4.2c0,0-0.1,0.1-0.1,0.1c0,0-0.1,0.1-0.1,0.1c0,0,0,0,0,0c-1,1.1-1.6,2.5-1.6,3.9
		c0,1.5,0.6,3,1.7,4.1c1.1,1.1,2.5,1.7,4.1,1.7c1.5,0,2.9-0.6,4-1.6c0,0,0,0,0,0c0,0,0,0,0.1-0.1c0,0,0.1-0.1,0.1-0.1
		c0.1-0.2,0.3-0.4,0.3-0.6C14.2,11.5,14.2,11.3,14.1,11.1z"/>
</g>
</svg>
