<?xml version="1.0" encoding="utf-8"?>
<!-- Generator: Adobe Illustrator 19.0.0, SVG Export Plug-In . SVG Version: 6.00 Build 0)  -->
<svg version="1.1" id="Layer_1" xmlns="http://www.w3.org/2000/svg" xmlns:xlink="http://www.w3.org/1999/xlink" x="0px" y="0px"
	 viewBox="0 0 24 24" style="enable-background:new 0 0 24 24;" xml:space="preserve">
<style type="text/css">
	.st0{fill:none;}
	.st1{fill:#11A511;}
</style>
<g id="XMLID_1_">
	<g>
		<rect id="XMLID_2_" x="0" class="st0" width="24" height="24"/>
	</g>
	<g id="XMLID_817_">
		<path id="XMLID_4_" class="st1" d="M15.6,14.4H8.6v-1.5l3.2-3.4C12.6,8.6,13,7.9,13,7.4c0-0.4-0.1-0.8-0.3-1s-0.5-0.3-0.8-0.3
			c-0.4,0-0.6,0.1-0.9,0.4c-0.2,0.3-0.3,0.7-0.3,1.1H8.4C8.4,7,8.6,6.5,8.9,6C9.2,5.4,9.6,5,10.1,4.7s1.1-0.4,1.8-0.4
			c1.1,0,1.9,0.2,2.5,0.7c0.6,0.5,0.9,1.2,0.9,2.1c0,0.4-0.1,0.8-0.2,1.1c-0.1,0.4-0.4,0.8-0.7,1.2c-0.3,0.4-0.8,1-1.5,1.6l-1.3,1.5
			h3.9V14.4z"/>
	</g>
	<g>
		<path id="XMLID_3_" class="st1" d="M21.3,21.3H2.7c-0.8,0-1.5-0.7-1.5-1.5s0.7-1.5,1.5-1.5h18.7c0.8,0,1.5,0.7,1.5,1.5
			S22.2,21.3,21.3,21.3z"/>
	</g>
</g>
</svg>
