<?xml version="1.0" encoding="utf-8"?>
<!-- Generator: Adobe Illustrator 19.0.0, SVG Export Plug-In . SVG Version: 6.00 Build 0)  -->
<svg version="1.1" id="Layer_1" xmlns="http://www.w3.org/2000/svg" xmlns:xlink="http://www.w3.org/1999/xlink" x="0px" y="0px"
	 viewBox="0 0 24 24" style="enable-background:new 0 0 24 24;" xml:space="preserve">
<style type="text/css">
	.st0{fill:none;}
	.st1{fill:#11A511;}
</style>
<g id="XMLID_1_">
	<g>
		<rect id="XMLID_5_" x="0" class="st0" width="24" height="24"/>
	</g>
	<g id="XMLID_818_">
		<path id="XMLID_3_" class="st1" d="M19.9,12.1H13v-1.5l3.2-3.4c0.8-0.9,1.2-1.6,1.2-2.1c0-0.4-0.1-0.8-0.3-1s-0.5-0.3-0.8-0.3
			c-0.4,0-0.6,0.1-0.9,0.4c-0.2,0.3-0.3,0.7-0.3,1.1h-2.3c0-0.6,0.2-1.2,0.5-1.7c0.3-0.5,0.7-0.9,1.3-1.2S15.7,2,16.3,2
			c1.1,0,1.9,0.2,2.5,0.7s0.9,1.2,0.9,2.1c0,0.4-0.1,0.8-0.2,1.1c-0.1,0.4-0.4,0.8-0.7,1.2c-0.3,0.4-0.8,1-1.5,1.6L16,10.3h3.9V12.1
			z"/>
	</g>
	<g>
		<path id="XMLID_2_" class="st1" d="M14.7,24c-0.4,0-0.8-0.1-1.1-0.4L0.5,10.4c-0.6-0.6-0.6-1.5,0-2.1s1.5-0.6,2.1,0l13.2,13.2
			c0.6,0.6,0.6,1.5,0,2.1C15.5,23.8,15.1,24,14.7,24z"/>
	</g>
</g>
</svg>
