<?xml version="1.0" encoding="utf-8"?>
<!-- Generator: Adobe Illustrator 19.0.0, SVG Export Plug-In . SVG Version: 6.00 Build 0)  -->
<svg version="1.1" id="Layer_1" xmlns="http://www.w3.org/2000/svg" xmlns:xlink="http://www.w3.org/1999/xlink" x="0px" y="0px"
	 viewBox="0 0 24 24" style="enable-background:new 0 0 24 24;" xml:space="preserve">
<style type="text/css">
	.st0{fill:none;}
	.st1{fill:#A44699;}
</style>
<g id="XMLID_1_">
	<g>
		<rect id="XMLID_2_" x="0" y="0" class="st0" width="24" height="24"/>
	</g>
	<g>
		<path id="XMLID_5_" class="st1" d="M22.5,16.2c-0.4,0-0.8-0.1-1.1-0.4L8.2,2.6C7.6,2,7.6,1,8.2,0.5s1.5-0.6,2.1,0l13.2,13.2
			c0.6,0.6,0.6,1.5,0,2.1C23.3,16.1,22.9,16.2,22.5,16.2z"/>
	</g>
	<g id="XMLID_812_">
		<path id="XMLID_3_" class="st1" d="M4.4,16.1L5,11h5.8v1.8H6.8l-0.2,2c0.2-0.1,0.4-0.2,0.6-0.3s0.5-0.1,0.8-0.1
			c1,0,1.7,0.3,2.3,0.9c0.5,0.6,0.8,1.4,0.8,2.5c0,0.6-0.1,1.2-0.4,1.7c-0.3,0.5-0.7,0.9-1.2,1.2c-0.5,0.3-1.1,0.4-1.8,0.4
			c-0.6,0-1.2-0.1-1.8-0.4c-0.5-0.3-1-0.6-1.3-1.1c-0.3-0.4-0.5-1-0.5-1.5h2.3c0,0.4,0.1,0.7,0.3,0.9c0.2,0.2,0.5,0.3,0.8,0.3
			c0.8,0,1.2-0.6,1.2-1.7c0-1.1-0.5-1.6-1.4-1.6c-0.5,0-0.9,0.2-1.2,0.5L4.4,16.1z"/>
	</g>
</g>
</svg>
