<?xml version="1.0" encoding="utf-8"?>
<!-- Generator: Adobe Illustrator 19.0.0, SVG Export Plug-In . SVG Version: 6.00 Build 0)  -->
<svg version="1.1" id="Layer_1" xmlns="http://www.w3.org/2000/svg" xmlns:xlink="http://www.w3.org/1999/xlink" x="0px" y="0px"
	 viewBox="0 0 24 24" style="enable-background:new 0 0 24 24;" xml:space="preserve">
<style type="text/css">
	.st0{fill:none;}
	.st1{fill:#A44699;}
</style>
<g id="XMLID_1_">
	<g>
		<rect id="XMLID_2_" x="0" class="st0" width="24" height="24"/>
	</g>
	<g>
		<path id="XMLID_5_" class="st1" d="M19.8,22.8c-0.8,0-1.5-0.7-1.5-1.5V2.7c0-0.8,0.7-1.5,1.5-1.5s1.5,0.7,1.5,1.5v18.7
			C21.3,22.2,20.6,22.8,19.8,22.8z"/>
	</g>
	<g id="XMLID_811_">
		<path id="XMLID_3_" class="st1" d="M7.3,12l0.6-5.1h5.8v1.8H9.8l-0.2,2c0.2-0.1,0.4-0.2,0.6-0.3c0.3-0.1,0.5-0.1,0.8-0.1
			c1,0,1.7,0.3,2.3,0.9c0.5,0.6,0.8,1.4,0.8,2.5c0,0.6-0.1,1.2-0.4,1.7c-0.3,0.5-0.7,0.9-1.2,1.2S11.3,17,10.6,17
			c-0.6,0-1.2-0.1-1.8-0.4c-0.5-0.3-1-0.6-1.3-1.1c-0.3-0.4-0.5-1-0.5-1.5h2.3c0,0.4,0.1,0.7,0.3,0.9s0.5,0.3,0.8,0.3
			c0.8,0,1.2-0.6,1.2-1.7c0-1.1-0.5-1.6-1.4-1.6c-0.5,0-0.9,0.2-1.2,0.5L7.3,12z"/>
	</g>
</g>
</svg>
