<?xml version="1.0" encoding="utf-8"?>
<!-- Generator: Adobe Illustrator 19.2.1, SVG Export Plug-In . SVG Version: 6.00 Build 0)  -->
<svg version="1.1" id="Livello_1" xmlns="http://www.w3.org/2000/svg" xmlns:xlink="http://www.w3.org/1999/xlink" x="0px" y="0px"
	 viewBox="0 0 25 25" style="enable-background:new 0 0 25 25;" xml:space="preserve">
<style type="text/css">
	.st0{fill-rule:evenodd;clip-rule:evenodd;fill:#154575;}
	.st1{fill:#154575;}
</style>
<g id="XMLID_160_">
	<g id="XMLID_163_">
		<circle id="XMLID_174_" class="st0" cx="8.9" cy="12.1" r="2.4"/>
		<path id="XMLID_173_" class="st1" d="M13.8,24.4c0.3,0,0.6-0.1,0.9-0.1c-0.4-4.4-1.1-5.9-1.8-7c-0.4-0.6-1-1.2-1.7-1.7
			C10.6,15.2,9.9,15,9,15c-0.8,0-1.6,0.3-2.2,0.6c-0.4,0.2-4.1,2.9-4.1-3.5H2c0,4.6,1.3,6.2,4.2,6.2c-0.1,0.4-0.2,1.5-0.3,4.4
			c1.8,1.1,4,1.7,6.3,1.8l-0.3-6.1C11.9,18.4,13.1,19.5,13.8,24.4z"/>
		<path id="XMLID_164_" class="st1" d="M24.3,10c-0.2-1.1-1.1-1.9-2.3-1.9c-0.6-1.4-1.5-2.7-2.6-3.7c0.2-0.5,0.2-0.9,0.1-1.4
			c-0.2-0.6-0.6-1.1-1.1-1.4c-0.4-0.2-0.8-0.3-1.2-0.3c-0.7,0-1.4,0.3-1.8,0.8c-1-0.3-2-0.5-3.1-0.5c-0.5,0-0.9,0-1.3,0.1
			c-0.4-0.7-1.2-1.2-2-1.2c-0.3,0-0.5,0-0.8,0.1C7.5,0.9,7.1,1.3,6.8,1.9C6.6,2.3,6.5,2.8,6.6,3.3C5.3,4.1,4.3,5.2,3.4,6.5
			c-0.1,0-0.3,0-0.4,0C2,6.4,1.1,7,0.8,8C0.4,9.2,1,10.5,2.2,11c0.3,0.1,0.5,0.1,0.8,0.1c1,0,1.9-0.6,2.2-1.5C5.4,9,5.4,8.3,5.1,7.8
			C5,7.5,4.8,7.2,4.6,7c0.7-1,1.6-1.9,2.6-2.6c0.4,0.5,1.1,0.7,1.7,0.7c0.3,0,0.5,0,0.8-0.1c0.6-0.2,1.1-0.6,1.3-1.2
			c0.1-0.3,0.2-0.6,0.2-0.9c0.3,0,0.7-0.1,1-0.1c0.9,0,1.8,0.1,2.6,0.4c0,0.3,0,0.6,0.1,0.9c0.2,0.6,0.6,1.1,1.1,1.4
			c0.4,0.2,0.8,0.3,1.2,0.3c0.5,0,1-0.2,1.4-0.5c0.9,0.9,1.6,1.9,2.1,3c-0.2,0.2-0.5,0.4-0.6,0.6c-0.4,0.5-0.5,1.1-0.4,1.7
			c0.2,0.9,0.9,1.6,1.7,1.8c-0.1,1.3-0.4,2.5-0.9,3.6c-0.2-0.1-0.5-0.1-0.7-0.1c-0.7,0-1.4,0.3-1.8,0.8c-0.8,1-0.7,2.5,0.3,3.3
			c0.4,0.4,1,0.5,1.5,0.5c0.7,0,1.4-0.3,1.8-0.8c0.7-0.9,0.7-2.2,0-3c0.7-1.4,1.1-2.9,1.2-4.4C23.9,12.2,24.5,11.1,24.3,10z
			 M4.3,9.2C4.1,9.8,3.6,10.1,3,10.1c-0.2,0-0.3,0-0.5-0.1C1.8,9.8,1.5,9,1.7,8.3C1.9,7.8,2.4,7.4,3,7.4c0.2,0,0.3,0,0.5,0.1
			c0.3,0.1,0.6,0.4,0.8,0.7C4.4,8.5,4.4,8.9,4.3,9.2z M10.2,3.4C10,3.8,9.7,4,9.4,4.1C9.2,4.2,9.1,4.2,8.9,4.2
			c-0.6,0-1.1-0.4-1.3-0.9c-0.1-0.3-0.1-0.7,0-1c0.2-0.3,0.4-0.6,0.8-0.7c0.2-0.1,0.3-0.1,0.5-0.1c0.6,0,1.1,0.4,1.3,0.9
			C10.3,2.7,10.3,3.1,10.2,3.4z M17.2,4.9c-0.2,0-0.5-0.1-0.7-0.2c-0.3-0.2-0.5-0.5-0.6-0.8c-0.1-0.4,0-0.7,0.1-1
			c0.2-0.4,0.7-0.7,1.2-0.7c0.2,0,0.5,0.1,0.7,0.2c0.3,0.2,0.5,0.5,0.6,0.8c0.1,0.4,0,0.7-0.1,1C18.2,4.7,17.7,4.9,17.2,4.9z
			 M20.6,10.7c-0.1-0.4,0-0.7,0.2-1.1c0.2-0.3,0.5-0.5,0.9-0.6C21.9,9,22,9,22,9c0.7,0,1.3,0.5,1.4,1.2c0.1,0.8-0.4,1.5-1.1,1.6
			c-0.1,0-0.2,0-0.2,0C21.4,11.8,20.8,11.3,20.6,10.7z M20.9,19.4c-0.3,0.3-0.6,0.5-1,0.5c-0.3,0-0.6-0.1-0.9-0.3
			c-0.6-0.5-0.6-1.3-0.2-1.9c0.3-0.3,0.6-0.5,1-0.5c0.3,0,0.6,0.1,0.9,0.3C21.3,17.9,21.4,18.8,20.9,19.4z"/>
	</g>
</g>
</svg>
